<?xml version="1.0" encoding="utf-8"?>
<!-- Generator: Adobe Illustrator 22.0.0, SVG Export Plug-In . SVG Version: 6.00 Build 0)  -->
<svg version="1.1" id="Capa_1" xmlns="http://www.w3.org/2000/svg" xmlns:xlink="http://www.w3.org/1999/xlink" x="0px" y="0px"
	 viewBox="0 0 28.3 28.3" style="enable-background:new 0 0 28.3 28.3;" xml:space="preserve">
<style type="text/css">
	.st0{fill:#FFFFFF;}
</style>
<path class="st0" d="M14.2,20.4c-0.7,0-1.3-0.6-1.3-1.3v-6.3c0-0.7,0.6-1.3,1.3-1.3s1.3,0.6,1.3,1.3v6.3
	C15.4,19.9,14.9,20.4,14.2,20.4z"/>
<path class="st0" d="M14.2,7.9c-0.7,0-1.3,0.6-1.3,1.3c0,0.7,0.6,1.3,1.3,1.3s1.3-0.6,1.3-1.3C15.4,8.5,14.9,7.9,14.2,7.9z"/>
<path class="st0" d="M14.2,26.7c6.9,0,12.5-5.6,12.5-12.5c0-6.9-5.6-12.5-12.5-12.5C7.3,1.7,1.7,7.3,1.7,14.2
	C1.7,21.1,7.3,26.7,14.2,26.7z M24.2,14.2c0,5.5-4.5,10-10,10c-5.5,0-10-4.5-10-10c0-5.5,4.5-10,10-10C19.7,4.2,24.2,8.7,24.2,14.2z
	"/>
</svg>
