<?xml version="1.0" encoding="utf-8"?>
<!-- Generator: Adobe Illustrator 22.0.0, SVG Export Plug-In . SVG Version: 6.00 Build 0)  -->
<svg version="1.1" id="Capa_1" xmlns="http://www.w3.org/2000/svg" xmlns:xlink="http://www.w3.org/1999/xlink" x="0px" y="0px"
	 viewBox="0 0 28.3 28.3" style="enable-background:new 0 0 28.3 28.3;" xml:space="preserve">
<style type="text/css">
	.st0{fill:#FFFFFF;}
</style>
<g>
	<path class="st0" d="M24.4,11.9h-7.9V3.9c0-1.3-1-2.3-2.3-2.3s-2.3,1-2.3,2.3v7.9H4c-1.3,0-2.3,1-2.3,2.3c0,0.6,0.3,1.2,0.7,1.6
		c0.4,0.4,1,0.7,1.6,0.7h8v7.9c0,0.6,0.2,1.2,0.7,1.6c0.4,0.4,1,0.7,1.6,0.7c1.3,0,2.3-1,2.3-2.3v-7.9h7.9c1.3,0,2.3-1,2.3-2.3
		C26.7,12.9,25.7,11.9,24.4,11.9z"/>
</g>
</svg>
